<mxfile host="app.diagrams.net" modified="2023-05-05T03:47:01.303Z" agent="Mozilla/5.0 (Macintosh; Intel Mac OS X 10_15_7) AppleWebKit/537.36 (KHTML, like Gecko) Chrome/112.0.0.0 Safari/537.36" version="21.2.9" etag="6fxvjBRIVPjK1z7ibvP3" type="github">
  <diagram name="第 1 页" id="Qoowu2bkhkE70WVo6xCv">
    <mxGraphModel>
      <root>
        <mxCell id="0" />
        <mxCell id="1" parent="0" />
      </root>
    </mxGraphModel>
  </diagram>
</mxfile>
